<?xml version="1.0" encoding="UTF-8" standalone="no"?>
<!-- Created with Inkscape (http://www.inkscape.org/) -->

<svg
   xmlns:dc="http://purl.org/dc/elements/1.1/"
   xmlns:cc="http://creativecommons.org/ns#"
   xmlns:rdf="http://www.w3.org/1999/02/22-rdf-syntax-ns#"
   xmlns:svg="http://www.w3.org/2000/svg"
   xmlns="http://www.w3.org/2000/svg"
   xmlns:sodipodi="http://sodipodi.sourceforge.net/DTD/sodipodi-0.dtd"
   xmlns:inkscape="http://www.inkscape.org/namespaces/inkscape"
   width="744.09448819"
   height="1052.3622047"
   id="svg3027"
   version="1.1"
   inkscape:version="0.48.3.1 r9886"
   sodipodi:docname="level03.svg">
  <defs
     id="defs3029" />
  <sodipodi:namedview
     id="base"
     pagecolor="#ffffff"
     bordercolor="#666666"
     borderopacity="1.0"
     inkscape:pageopacity="0.0"
     inkscape:pageshadow="2"
     inkscape:zoom="0.7"
     inkscape:cx="168.12795"
     inkscape:cy="910.70074"
     inkscape:document-units="px"
     inkscape:current-layer="layer1"
     showgrid="false"
     inkscape:window-width="1025"
     inkscape:window-height="676"
     inkscape:window-x="745"
     inkscape:window-y="170"
     inkscape:window-maximized="0" />
  <metadata
     id="metadata3032">
    <rdf:RDF>
      <cc:Work
         rdf:about="">
        <dc:format>image/svg+xml</dc:format>
        <dc:type
           rdf:resource="http://purl.org/dc/dcmitype/StillImage" />
        <dc:title />
      </cc:Work>
    </rdf:RDF>
  </metadata>
  <g
     inkscape:label="Layer 1"
     inkscape:groupmode="layer"
     id="layer1">
    <g
       id="kola"
       inkscape:label="#g3005"
       transform="translate(-90,17.142857)">
      <desc
         id="desc3011">body=dynamic</desc>
      <rect
         inkscape:label="#rect3037"
         y="86.586349"
         x="-24.785719"
         height="88.694519"
         width="795.1059"
         id="sasija"
         style="fill:#ffff00;stroke:#0000ff;stroke-width:1.06114483">
        <desc
           id="desc3017">shape=auto</desc>
      </rect>
      <path
         inkscape:label="#path3040"
         d="m 168.57143,209.50504 c 0,41.02686 -31.65987,74.28571 -70.71429,74.28571 -39.054423,0 -70.714287,-33.25885 -70.714287,-74.28571 0,-41.02687 31.659864,-74.28572 70.714287,-74.28572 39.05442,0 70.71429,33.25885 70.71429,74.28572 z"
         sodipodi:ry="74.285713"
         sodipodi:rx="70.714287"
         sodipodi:cy="209.50504"
         sodipodi:cx="97.85714"
         id="tocak_1"
         style="fill:#000080;stroke:#0000ff"
         sodipodi:type="arc">
        <desc
           id="desc3013">shape=auto</desc>
      </path>
      <path
         transform="translate(165.71429,14.285714)"
         inkscape:label="#path3042"
         d="m 554.28572,215.93361 c 0,42.21033 -35.17762,76.42857 -78.57143,76.42857 -43.3938,0 -78.57142,-34.21824 -78.57142,-76.42857 0,-42.21034 35.17762,-76.42857 78.57142,-76.42857 43.39381,0 78.57143,34.21823 78.57143,76.42857 z"
         sodipodi:ry="76.428574"
         sodipodi:rx="78.571426"
         sodipodi:cy="215.93361"
         sodipodi:cx="475.71429"
         id="tocak_2"
         style="fill:#000080;stroke:#0000ff"
         sodipodi:type="arc">
        <desc
           id="desc3015">shape=auto</desc>
      </path>
      <path
         inkscape:label="#trava"
         sodipodi:nodetypes="cccccc"
         id="kabina"
         d="m 256.30482,-40.464137 139.40879,-21.388238 162.31849,24.245381 66.63379,122.795478 -489.86975,0 z"
         style="fill:#008000;stroke:#0000ff;stroke-width:1.2434876"
         inkscape:connector-curvature="0">
        <desc
           id="desc3019">shape=auto</desc>
      </path>
    </g>
    <path
       style="fill:#00ff00;stroke:#000000;stroke-width:1px;stroke-linecap:butt;stroke-linejoin:miter;stroke-opacity:1"
       d="M 400.02041,630.11842 632.35549,642.24025 587.27733,507.02571 z"
       id="trougao"
       inkscape:connector-curvature="0"
       inkscape:label="#path3065"
       sodipodi:nodetypes="cccc">
      <desc
         id="desc2994">shape=auto
body=dynamic</desc>
    </path>
    <path
       style="fill:none;stroke:#000000;stroke-width:1px;stroke-linecap:butt;stroke-linejoin:miter;stroke-opacity:1"
       d="m -277.14286,386.6479 c 21.90476,47.61904 43.39589,95.43055 83.64764,153.8681 40.25175,58.43756 83.88154,110.9691 144.3134,161.0926 60.431859,50.1235 126.503209,85.66938 198.74479,118.84801 72.24159,33.17863 139.87899,54.07633 293.04603,78.79839 153.16705,24.72205 23.0228,13.58925 85.96243,15.96433 49.52518,1.86887 99.04625,3.84541 159.12768,-7.89935 60.08144,-11.74476 116.4739,-37.03506 155.84821,-64.53956 39.37431,-27.50451 58.78682,-50.88665 76.01943,-74.53741 17.23261,-23.65076 25.73879,-42.73675 36.18093,-64.45084 10.44213,-21.7141 36.24526,-37.9421 45.29222,-59.65478 10.0047,-24.01143 31.3947,-55.55325 40.7481,-81.81724"
       id="path2990"
       inkscape:connector-curvature="0"
       sodipodi:nodetypes="cccccsccccsc">
      <desc
         id="desc2992">shape=chain
body=static</desc>
    </path>
  </g>
</svg>
